PathFileType	4	(X/Y/Z)	/Users/itak/Documents/Research/Walk-IL/dataset/trc/00305_00010.trc
DataRate	CameraRate	NumFrames	NumMarkers	Units	OrigDataRate	OrigDataStartFrame	OrigNumFrames
100.000000	100.000000	4	55	mm	100.000000	228	456
Frame#	Time	RPSI			LPSI			L3			STRN			T10			C7			CLAV			RBAK			LBAK			LSHO			LUPA			LAEL			LAOL			LWPS			LFRA			LIFD			LHPS			LHTS			RSHO			RUPA			RAEL			RAOL			RWTS			RWPS			RFRA			RIFD			RHPS			RBHD			LFHD			RFHD			LBHD			LHIP			RASI			LASI			LKNE			LTHI			LANK			LTIP			LTOE			LMT1			LMT5			LHEE			RKNE			RTHI			RANK			RTIP			RTOE			RMT1			RMT5			LWTS			RHTS			RHEE			RHIP			*53			*54			
		X1	Y1	Z1	X2	Y2	Z2	X3	Y3	Z3	X4	Y4	Z4	X5	Y5	Z5	X6	Y6	Z6	X7	Y7	Z7	X8	Y8	Z8	X9	Y9	Z9	X10	Y10	Z10	X11	Y11	Z11	X12	Y12	Z12	X13	Y13	Z13	X14	Y14	Z14	X15	Y15	Z15	X16	Y16	Z16	X17	Y17	Z17	X18	Y18	Z18	X19	Y19	Z19	X20	Y20	Z20	X21	Y21	Z21	X22	Y22	Z22	X23	Y23	Z23	X24	Y24	Z24	X25	Y25	Z25	X26	Y26	Z26	X27	Y27	Z27	X28	Y28	Z28	X29	Y29	Z29	X30	Y30	Z30	X31	Y31	Z31	X32	Y32	Z32	X33	Y33	Z33	X34	Y34	Z34	X35	Y35	Z35	X36	Y36	Z36	X37	Y37	Z37	X38	Y38	Z38	X39	Y39	Z39	X40	Y40	Z40	X41	Y41	Z41	X42	Y42	Z42	X43	Y43	Z43	X44	Y44	Z44	X45	Y45	Z45	X46	Y46	Z46	X47	Y47	Z47	X48	Y48	Z48	X49	Y49	Z49	X50	Y50	Z50	X51	Y51	Z51	X52	Y52	Z52	X53	Y53	Z53	X54	Y54	Z54	X55	Y55	Z55	

229	2.28	-413.9414367675781	962.6228637695312	892.8880004882812	-466.5010375976562	954.2867431640625	725.0620727539062	-434.8545227050781	1032.108032226562	787.7723999023438	-188.4031982421875	1198.935302734375	714.6990966796875	-446.0703125	1145.4716796875	778.6728515625	-397.6973571777344	1389.858032226562	747.8880004882812	-246.9477081298828	1300.689086914062	723.6673583984375	-436.6451721191406	1253.6708984375	833.432373046875	-436.9308776855469	1351.7958984375	647.9190673828125	-358.36376953125	1353.294677734375	579.15576171875	-388.1595153808594	1230.273803710938	514.7705688476562	-333.1510009765625	1034.7197265625	504.7139892578125	-391.8748168945312	1001.369262695312	561.4111328125	-147.7999267578125	892.05224609375	527.7409057617188	-262.7127685546875	963.670654296875	509.8341369628906	-6.763580799102783	813.3055419921875	623.6553344726562	-81.70922088623047	835.8158569335938	549.0790405273438	-53.26507949829102	881.669921875	587.1951293945312	-300.2907409667969	1364.739135742188	890.2005615234375	-300.9319763183594	1312.463623046875	958.9100952148438	-352.7437438964844	1065.221557617188	1043.64990234375	-378.3576965332031	1042.907348632812	952.9064331054688	-303.9602966308594	821.562255859375	1057.308349609375	-353.6371459960938	846.5755615234375	1121.779418945312	-344.0335083007812	1002.188110351562	1073.384765625	-353.4386901855469	645.9260864257812	1099.680419921875	-362.1835327148438	736.3441162109375	1147.404907226562	-333.7294006347656	1552.600463867188	816.9442138671875	-228.8947143554688	1579.964111328125	633.1666259765625	-190.8108062744141	1582.230712890625	717.5640258789062	-394.2131958007812	1538.0673828125	681.6334838867188	-432.8584594726562	901.4859619140625	613.7064819335938	-196.6654205322266	924.7333374023438	848.5149536132812	-282.43017578125	907.2244873046875	612.475341796875	-443.3114318847656	451.1077880859375	689.0989379882812	-423.9439697265625	587.7334594726562	646.0155639648438	-668.1060791015625	73.51065063476562	785.29931640625	-557.7315673828125	250.9199981689453	731.9844970703125	-464.3653259277344	38.43998718261719	838.6730346679688	-534.718017578125	36.21997833251953	880.3538208007812	-548.6500854492188	48.41468811035156	769.8898315429688	-714.2266845703125	82.81716918945312	845.2294921875	-101.4622192382812	492.6506958007812	861.681640625	-172.7872161865234	732.0010986328125	923.1919555664062	-20.96810531616211	42.0228271484375	857.5530395507812	-57.70457077026367	376.8145751953125	837.6090698242188	67.66346740722656	76.04620361328125	683.134765625	2.25179123878479	58.7283935546875	694.339599609375	63.78129577636719	45.98418426513672	794.1599731445312	-141.9626312255859	932.0747680664062	588.0714111328125	-312.1290283203125	708.848388671875	1104.5224609375	-92.67193603515625	34.77873611450195	859.9780883789062	-278.7091369628906	922.51123046875	958.5166625976562	nan	nan	nan	nan	nan	nan	
230	2.29	-403.5243530273438	963.9481201171875	891.0138549804688	-456.3299255371094	954.2041015625	723.2974243164062	-424.3889465332031	1032.064208984375	785.9149780273438	-178.70654296875	1199.468383789062	712.3536376953125	-436.0292053222656	1145.369140625	777.5179443359375	-388.3922424316406	1389.956909179688	746.9784545898438	-237.4477081298828	1301.051879882812	721.7616577148438	-426.4749755859375	1253.489013671875	832.4340209960938	-428.0564270019531	1351.882446289062	647.1949462890625	-349.9515380859375	1353.634521484375	577.8486938476562	-380.7273254394531	1230.482543945312	513.7946166992188	-327.1283874511719	1034.255126953125	503.2875366210938	-384.9444274902344	1001.777954101562	561.2720336914062	-144.2896270751953	887.2449340820312	524.8250732421875	-257.4762573242188	961.5531005859375	507.88134765625	-4.76728343963623	804.2550659179688	619.17626953125	-79.70951080322266	829.2189331054688	545.36572265625	-49.69577789306641	874.0400390625	583.578857421875	-290.0641479492188	1364.669189453125	888.7882080078125	-290.1640930175781	1312.060302734375	957.3740234375	-341.3037109375	1064.236328125	1041.051879882812	-367.3880310058594	1042.416870117188	950.2879028320312	-293.8429565429688	820.2672119140625	1053.347290039062	-342.6922607421875	845.5298461914062	1118.305297851562	-332.6076049804688	1001.118408203125	1070.457763671875	-344.8907775878906	645.028564453125	1095.765869140625	-352.1887817382812	735.3492431640625	1143.694702148438	-323.74853515625	1553.121948242188	815.7694702148438	-221.5077056884766	1580.40380859375	630.5560302734375	-182.3020629882812	1583.00537109375	714.4050903320312	-385.9814453125	1538.0849609375	681.3621215820312	-422.9335327148438	900.7616577148438	612.1744995117188	-186.2137145996094	926.0357666015625	846.1982421875	-272.1537475585938	906.7921142578125	610.7425537109375	-433.6298828125	450.6168212890625	687.9356079101562	-413.9969482421875	587.1629028320312	644.9320678710938	-666.2744140625	77.42039489746094	784.754638671875	-551.8877563476562	252.4915008544922	731.048583984375	-464.0039367675781	38.43136596679688	838.688232421875	-534.0357055664062	37.14464950561523	880.25048828125	-547.5602416992188	48.82698059082031	769.7656860351562	-712.1534423828125	88.60732269287109	844.5293579101562	-91.35904693603516	493.9840393066406	857.2672119140625	-161.7108001708984	733.9417114257812	919.4034423828125	-20.10868644714355	41.54439163208008	857.4181518554688	-49.64218139648438	376.9257507324219	833.686767578125	69.50886535644531	71.10870361328125	682.5299682617188	3.53365683555603	55.91989898681641	693.96875	64.84525299072266	42.54657745361328	793.9800415039062	-137.0316772460938	926.77392578125	585.3030395507812	-302.9401550292969	707.2951049804688	1100.368896484375	-91.89136505126953	35.89441680908203	859.9259033203125	-268.1832580566406	924.5477905273438	956.3873901367188	nan	nan	nan	nan	nan	nan	
231	2.3	-393.141845703125	965.499755859375	888.991943359375	-446.1552124023438	954.367919921875	721.3966674804688	-413.9375610351562	1032.259399414062	783.9171752929688	-168.9288482666016	1200.436889648438	709.9307861328125	-426.0520935058594	1145.722412109375	776.274169921875	-379.0049743652344	1390.4384765625	745.9940795898438	-227.8983306884766	1301.840087890625	719.79150390625	-416.2754211425781	1253.74609375	831.385009765625	-419.0981750488281	1352.405639648438	646.3717041015625	-341.4280700683594	1354.408935546875	576.4983520507812	-373.1329345703125	1231.191772460938	512.7246704101562	-321.0050964355469	1034.277099609375	501.8493957519531	-377.9069519042969	1002.720092773438	561.1068115234375	-141.2822723388672	882.3301391601562	521.671142578125	-252.4082336425781	959.7069091796875	505.8209228515625	-3.776960134506226	794.4093627929688	614.173583984375	-78.57152557373047	822.2883911132812	541.25439453125	-46.78713607788086	865.8200073242188	579.6271362304688	-279.7684631347656	1365.012939453125	887.2911376953125	-279.3097229003906	1312.072265625	955.740478515625	-329.5944519042969	1063.603881835938	1038.291381835938	-356.2593078613281	1042.348266601562	947.5552978515625	-283.162109375	819.361328125	1049.000854492188	-331.1112670898438	844.7393188476562	1114.522216796875	-320.8238525390625	1000.365173339844	1067.309448242188	-335.4793090820312	644.4367065429688	1091.342529296875	-341.3843994140625	734.5681762695312	1139.576416015625	-313.6884155273438	1553.97021484375	814.5738525390625	-214.1684265136719	1581.221069335938	627.9055786132812	-173.796630859375	1584.158203125	711.165771484375	-377.7214965820312	1538.431030273438	681.1588134765625	-412.9784240722656	900.3869018554688	610.4830932617188	-175.6914672851562	927.82275390625	843.7957763671875	-262.0226745605469	906.7412109375	608.948974609375	-423.1060180664062	450.1836853027344	686.3896484375	-403.4429626464844	586.721923828125	643.5863037109375	-664.0245971679688	81.87029266357422	784.095947265625	-545.473388671875	254.3209381103516	729.8222045898438	-463.6224060058594	38.41479873657227	838.6927490234375	-533.2511596679688	38.21486282348633	880.161865234375	-546.3128051757812	49.28582763671875	769.5833740234375	-709.4929809570312	95.17255401611328	843.714111328125	-81.48177337646484	495.3063049316406	853.0973510742188	-150.5787963867188	736.2948608398438	915.4112548828125	-19.40105247497559	41.21023178100586	857.5282592773438	-41.87375259399414	377.0833740234375	830.1631469726562	71.48306274414062	67.10205078125	682.4716186523438	4.994455337524414	53.89091110229492	694.0357055664062	65.85206604003906	39.67111587524414	794.3109130859375	-132.4487457275391	921.2032470703125	582.3307495117188	-292.9372253417969	706.1554565429688	1095.714965820312	-91.20398712158203	36.86894226074219	859.9100341796875	-257.6427307128906	926.9290161132812	954.1205444335938	nan	nan	nan	nan	nan	nan	
232	2.31	-382.753173828125	967.1827392578125	886.888427734375	-436.0132446289062	954.7691650390625	719.4452514648438	-403.5357971191406	1032.686157226562	781.8629150390625	-159.0953063964844	1201.808471679688	707.4282836914062	-416.1570739746094	1146.5087890625	774.9407958984375	-369.5490112304688	1391.286865234375	744.9317016601562	-218.3210906982422	1303.032836914062	717.75244140625	-406.0668029785156	1254.429809570312	830.2913208007812	-410.0793762207031	1353.356201171875	645.4505004882812	-332.8078002929688	1355.597778320312	575.1078491210938	-365.3701782226562	1232.39501953125	511.5405883789062	-314.7473754882812	1034.798583984375	500.400146484375	-370.7709350585938	1004.190856933594	560.8759155273438	-138.7911376953125	877.4026489257812	518.2944946289062	-247.5065460205078	958.1783447265625	503.6537170410156	-3.883625745773315	783.9107666015625	608.6676635742188	-78.30828857421875	815.148681640625	536.770751953125	-44.61009979248047	857.1174926757812	575.3624267578125	-269.4171142578125	1365.7548828125	885.6965942382812	-268.3798217773438	1312.495849609375	953.998291015625	-317.6283264160156	1063.32861328125	1035.388061523438	-345.0078125	1042.706176757812	944.7425537109375	-271.9129028320312	818.8507690429688	1044.270874023438	-318.8971252441406	844.2015380859375	1110.435791015625	-308.6827697753906	999.9337768554688	1063.953002929688	-325.1724548339844	644.1303100585938	1086.3857421875	-329.7462463378906	733.9905395507812	1135.05224609375	-303.5594177246094	1555.101318359375	813.3516845703125	-206.8693084716797	1582.400024414062	625.2271118164062	-165.2984313964844	1585.655517578125	707.8651123046875	-369.4337463378906	1539.08642578125	681.0009155273438	-403.0669250488281	900.3857421875	608.6898193359375	-165.1032104492188	929.9912719726562	841.2903442382812	-252.1439056396484	907.087158203125	607.06982421875	-411.7059326171875	449.7734069824219	684.3516235351562	-392.3248291015625	586.4086303710938	641.9107055664062	-661.2723999023438	86.89044189453125	783.3607788085938	-538.4589233398438	256.4308776855469	728.266357421875	-463.2478637695312	38.38254928588867	838.67919921875	-532.3341674804688	39.44236373901367	880.1013793945312	-544.9017944335938	49.78286743164062	769.3444213867188	-706.085693359375	102.5477828979492	842.8291015625	-71.91547393798828	496.4885559082031	849.265380859375	-139.4144134521484	738.863525390625	911.3245239257812	-18.77199172973633	40.95041275024414	857.799072265625	-34.43417358398438	377.1893310546875	827.0862426757812	73.46030426025391	63.92221450805664	682.7635498046875	6.53671932220459	52.50505447387695	694.3926391601562	66.80528259277344	37.31694412231445	794.9605102539062	-128.2517700195312	915.4360961914062	579.1681518554688	-282.0737609863281	705.4508056640625	1090.549194335938	-90.56700897216797	37.67521667480469	859.9254760742188	-247.0280609130859	929.4833984375	951.7462768554688	nan	nan	nan	nan	nan	nan	
